<?xml version="1.0" encoding="UTF-8" standalone="no"?>
<!DOCTYPE svg PUBLIC "-//W3C//DTD SVG 20010904//EN"
        "http://www.w3.org/TR/2001/REC-SVG-20010904/DTD/svg10.dtd">

<svg xmlns="http://www.w3.org/2000/svg"
     width="300" height="48"
     viewBox="0 0 3000 473">
    <path id="mogu"
          fill="black" stroke="black" stroke-width="16"
          d="M 0.00,342.00
           C 14.25,338.61 16.59,324.73 17.83,312.00
             18.32,306.98 17.94,303.21 19.35,298.00
             20.70,293.02 23.57,290.77 25.52,286.00
             25.52,286.00 29.80,266.00 29.80,266.00
             29.80,266.00 32.43,254.00 32.43,254.00
             32.43,254.00 37.58,236.00 37.58,236.00
             39.42,225.85 39.98,210.47 40.00,200.00
             40.00,200.00 41.00,185.00 41.00,185.00
             41.25,163.45 44.37,162.45 46.72,145.00
             47.61,138.41 47.99,134.68 48.00,128.00
             48.00,128.00 49.00,106.00 49.00,106.00
             49.00,106.00 50.00,88.00 50.00,88.00
             50.00,88.00 51.04,76.00 51.04,76.00
             51.04,76.00 51.04,67.00 51.04,67.00
             52.29,55.22 54.16,49.96 56.58,39.00
             59.03,27.89 58.11,22.97 65.91,14.00
             67.95,11.65 69.35,10.01 70.36,7.00
             70.99,5.09 70.94,2.32 72.60,1.02
             74.20,-0.24 78.00,0.00 80.00,0.00
             80.00,0.00 96.00,0.00 96.00,0.00
             96.26,5.38 97.31,9.70 101.33,13.62
             103.94,16.18 106.63,16.92 109.15,20.18
             109.15,20.18 114.11,28.99 114.11,28.99
             114.11,28.99 120.59,37.09 120.59,37.09
             120.59,37.09 124.21,47.00 124.21,47.00
             124.21,47.00 129.21,56.00 129.21,56.00
             129.21,56.00 133.81,72.00 133.81,72.00
             133.81,72.00 142.45,89.00 142.45,89.00
             142.45,89.00 145.43,108.00 145.43,108.00
             145.43,108.00 151.34,125.00 151.34,125.00
             151.34,125.00 154.65,148.00 154.65,148.00
             158.07,162.92 160.55,162.32 163.23,171.00
             163.23,171.00 166.67,191.00 166.67,191.00
             168.75,199.20 178.74,215.70 188.00,216.40
             190.94,216.62 194.62,214.48 197.00,212.90
             202.81,209.02 207.60,202.59 209.90,196.00
             209.90,196.00 211.99,189.00 211.99,189.00
             211.99,189.00 219.73,177.00 219.73,177.00
             223.27,170.07 222.85,167.11 225.09,161.00
             225.09,161.00 230.90,149.00 230.90,149.00
             230.90,149.00 234.64,134.00 234.64,134.00
             234.64,134.00 241.54,122.00 241.54,122.00
             241.54,122.00 246.46,106.00 246.46,106.00
             246.46,106.00 252.91,93.00 252.91,93.00
             252.91,93.00 255.82,83.00 255.82,83.00
             257.63,78.97 260.77,76.72 262.92,73.00
             262.92,73.00 267.56,63.00 267.56,63.00
             270.90,57.69 280.35,45.56 285.28,41.85
             285.28,41.85 295.00,36.88 295.00,36.88
             304.25,31.29 306.51,29.14 318.00,29.00
             324.03,28.93 333.29,27.49 337.96,31.30
             346.08,37.93 346.51,53.25 348.90,63.00
             351.44,73.38 354.31,73.94 356.39,80.00
             356.39,80.00 360.46,108.00 360.46,108.00
             362.83,120.32 365.85,119.00 367.09,136.00
             367.98,148.28 369.86,162.08 372.90,174.00
             376.61,188.57 379.77,186.49 380.00,206.00
             380.00,206.00 380.91,216.00 380.91,216.00
             381.49,224.49 381.49,231.46 383.29,240.00
             383.29,240.00 385.85,249.00 385.85,249.00
             388.80,259.80 388.88,263.09 389.00,274.00
             389.09,281.75 391.39,300.56 393.42,308.00
             393.42,308.00 400.48,329.00 400.48,329.00
             400.48,329.00 403.81,359.00 403.81,359.00
             405.47,367.22 408.16,369.41 409.47,375.00
             409.47,375.00 414.03,403.00 414.03,403.00
             414.03,403.00 420.90,419.00 420.90,419.00
             422.85,424.77 424.24,435.83 423.96,442.00
             423.28,457.16 414.90,454.06 408.02,459.42
             403.08,463.25 378.00,467.00 378.00,467.00
             367.00,462.50 368.04,461.58 364.79,454.00
             364.79,454.00 358.62,435.00 358.62,435.00
             355.94,429.67 353.39,428.31 352.10,422.00
             352.10,422.00 348.98,398.00 348.98,398.00
             348.98,398.00 343.30,380.00 343.30,380.00
             343.30,380.00 340.83,350.00 340.83,350.00
             340.83,350.00 337.73,327.00 337.73,327.00
             335.88,314.47 334.07,313.47 332.29,305.00
             329.59,292.20 329.02,280.00 329.00,267.00
             328.99,261.45 327.76,249.32 326.50,244.00
             324.14,234.09 322.24,236.16 320.93,222.00
             320.11,213.21 319.48,204.44 316.64,196.00
             314.43,189.43 310.23,183.80 308.68,177.00
             306.70,168.30 307.03,152.80 292.00,154.34
             270.86,156.50 273.35,177.60 268.46,188.00
             266.53,192.11 265.01,192.93 263.44,198.00
             263.44,198.00 260.52,211.00 260.52,211.00
             257.91,217.41 255.14,217.22 252.03,227.00
             252.03,227.00 247.40,248.00 247.40,248.00
             247.40,248.00 241.76,261.00 241.76,261.00
             241.76,261.00 238.74,275.00 238.74,275.00
             237.13,279.33 234.55,281.07 232.41,285.00
             229.71,289.97 222.92,309.56 223.47,315.00
             223.62,318.93 224.50,321.89 223.47,326.00
             221.94,333.75 215.40,341.92 209.00,346.38
             209.00,346.38 201.00,351.10 201.00,351.10
             201.00,351.10 194.00,355.71 194.00,355.71
             190.26,357.62 181.66,357.52 178.00,355.71
             178.00,355.71 169.00,349.43 169.00,349.43
             165.03,347.38 162.02,347.66 158.84,343.79
             158.84,343.79 155.27,338.00 155.27,338.00
             148.54,326.69 150.15,325.95 148.72,314.00
             148.72,314.00 145.56,290.00 145.56,290.00
             143.87,279.40 140.87,279.47 138.08,273.00
             138.08,273.00 134.79,261.00 134.79,261.00
             133.41,257.87 129.62,253.04 127.50,250.00
             125.40,247.01 123.13,243.81 119.99,241.85
             112.55,237.22 98.12,238.12 93.23,246.04
             90.82,249.93 91.01,253.64 91.00,258.00
             91.00,258.00 91.00,284.00 91.00,284.00
             91.00,284.00 87.00,322.00 87.00,322.00
             87.00,322.00 88.00,379.00 88.00,379.00
             88.00,381.53 88.08,384.56 87.44,387.00
             86.35,391.19 80.70,399.44 76.91,401.55
             76.91,401.55 66.00,404.93 66.00,404.93
             56.39,408.69 54.35,411.24 43.00,409.82
             38.76,409.28 22.13,401.14 19.72,397.87
             18.11,395.68 17.09,390.97 15.67,388.00
             12.06,380.41 7.98,377.63 0.00,376.00
             0.00,376.00 0.00,342.00 0.00,342.00 Z
           M 1600.00,0.00
           C 1600.00,0.00 1625.00,0.00 1625.00,0.00
             1625.23,4.79 1626.05,9.08 1629.39,12.79
             1631.94,15.63 1634.54,16.25 1637.32,20.04
             1637.32,20.04 1647.63,36.00 1647.63,36.00
             1647.63,36.00 1651.53,45.00 1651.53,45.00
             1653.56,48.90 1656.16,50.87 1657.87,55.00
             1657.87,55.00 1660.78,67.00 1660.78,67.00
             1660.78,67.00 1667.65,83.00 1667.65,83.00
             1667.65,83.00 1672.91,106.00 1672.91,106.00
             1674.97,112.91 1678.64,115.69 1680.32,123.00
             1680.32,123.00 1682.46,143.00 1682.46,143.00
             1684.30,153.10 1687.04,154.93 1688.76,162.00
             1688.76,162.00 1693.76,187.00 1693.76,187.00
             1695.67,192.50 1698.18,194.37 1700.60,199.00
             1702.58,202.78 1703.03,206.28 1705.80,209.91
             1712.19,218.28 1721.33,216.70 1729.00,211.21
             1738.59,204.34 1736.79,200.21 1740.10,191.00
             1742.04,185.61 1744.54,184.05 1746.44,180.00
             1746.44,180.00 1750.10,168.00 1750.10,168.00
             1752.33,162.74 1755.72,160.14 1758.54,153.00
             1758.54,153.00 1762.61,137.00 1762.61,137.00
             1762.61,137.00 1768.40,125.00 1768.40,125.00
             1770.03,120.09 1770.04,114.69 1772.44,110.00
             1774.41,106.14 1776.65,104.72 1779.69,98.00
             1779.69,98.00 1784.05,85.00 1784.05,85.00
             1784.05,85.00 1789.05,77.00 1789.05,77.00
             1789.05,77.00 1793.70,67.00 1793.70,67.00
             1793.70,67.00 1799.47,60.00 1799.47,60.00
             1804.41,53.55 1805.79,48.72 1813.17,42.27
             1816.39,39.46 1818.57,39.43 1822.00,37.59
             1832.40,32.01 1832.24,29.16 1846.00,29.00
             1853.03,28.92 1865.56,27.83 1870.69,33.27
             1873.96,36.75 1874.65,53.01 1876.44,59.00
             1878.82,67.00 1881.42,69.16 1884.11,81.00
             1884.11,81.00 1888.49,106.00 1888.49,106.00
             1888.49,106.00 1893.17,117.00 1893.17,117.00
             1894.61,121.13 1895.92,132.47 1896.00,137.00
             1896.35,158.64 1900.56,160.41 1903.58,177.00
             1903.58,177.00 1905.17,192.00 1905.17,192.00
             1905.17,192.00 1909.28,228.00 1909.28,228.00
             1909.28,228.00 1916.54,252.00 1916.54,252.00
             1916.54,252.00 1918.00,273.00 1918.00,273.00
             1918.10,281.68 1918.67,290.51 1920.68,299.00
             1920.68,299.00 1925.54,316.00 1925.54,316.00
             1925.54,316.00 1926.17,325.00 1926.17,325.00
             1926.17,325.00 1930.01,352.00 1930.01,352.00
             1932.27,362.38 1936.08,365.96 1937.65,372.00
             1937.65,372.00 1941.91,399.00 1941.91,399.00
             1941.91,399.00 1946.70,410.00 1946.70,410.00
             1946.70,410.00 1949.89,428.00 1949.89,428.00
             1950.82,432.05 1952.87,438.03 1952.45,442.00
             1952.08,445.43 1950.33,451.16 1947.73,453.49
             1945.55,455.43 1940.95,456.63 1938.00,458.36
             1932.04,461.86 1907.50,466.50 1907.50,466.50
             1894.00,461.50 1893.86,456.19 1890.39,448.00
             1890.39,448.00 1886.25,431.00 1886.25,431.00
             1886.25,431.00 1880.71,418.00 1880.71,418.00
             1880.71,418.00 1877.10,393.00 1877.10,393.00
             1877.10,393.00 1872.95,379.00 1872.95,379.00
             1872.95,379.00 1869.34,369.00 1869.34,369.00
             1867.03,359.51 1866.02,342.93 1866.00,333.00
             1865.99,326.63 1864.61,314.16 1863.10,308.00
             1863.10,308.00 1860.09,297.00 1860.09,297.00
             1858.52,288.70 1858.04,283.41 1858.00,275.00
             1858.00,275.00 1857.00,257.00 1857.00,257.00
             1856.92,240.24 1852.57,233.68 1848.43,219.00
             1848.43,219.00 1843.84,193.00 1843.84,193.00
             1841.87,185.72 1839.62,184.41 1837.48,179.00
             1834.56,171.62 1837.53,163.78 1829.95,157.28
             1817.56,146.66 1804.07,163.86 1800.92,175.00
             1800.92,175.00 1797.84,188.00 1797.84,188.00
             1796.16,191.47 1793.21,193.65 1791.12,199.00
             1791.12,199.00 1785.91,219.00 1785.91,219.00
             1785.91,219.00 1779.55,233.00 1779.55,233.00
             1777.44,238.92 1778.15,245.66 1775.36,252.00
             1773.66,255.84 1771.33,257.41 1769.56,262.00
             1769.56,262.00 1764.68,279.00 1764.68,279.00
             1758.36,292.67 1754.22,293.89 1754.00,312.00
             1754.00,312.00 1754.00,322.00 1754.00,322.00
             1753.85,330.39 1746.43,339.46 1740.00,344.47
             1740.00,344.47 1732.00,349.46 1732.00,349.46
             1723.17,355.01 1722.73,358.40 1711.00,356.87
             1705.87,356.20 1702.42,352.15 1698.00,349.82
             1693.21,347.30 1689.38,346.73 1685.96,341.91
             1682.93,337.63 1682.01,332.79 1680.30,328.00
             1677.90,321.25 1675.33,315.23 1674.30,308.00
             1674.30,308.00 1672.70,287.00 1672.70,287.00
             1671.30,277.48 1669.38,277.13 1666.47,270.00
             1666.47,270.00 1662.59,259.00 1662.59,259.00
             1660.49,255.16 1657.12,252.28 1654.30,249.00
             1652.61,247.03 1650.66,244.23 1648.70,242.65
             1641.28,236.67 1626.25,238.90 1621.23,247.04
             1618.41,251.61 1618.94,257.79 1619.00,263.00
             1619.00,263.00 1620.00,279.00 1620.00,279.00
             1619.96,288.31 1617.70,294.17 1616.43,303.00
             1616.43,303.00 1615.04,326.00 1615.04,326.00
             1615.04,326.00 1615.04,339.00 1615.04,339.00
             1615.04,339.00 1616.00,351.00 1616.00,351.00
             1616.00,351.00 1616.00,382.00 1616.00,382.00
             1615.79,399.34 1608.26,399.72 1595.00,404.92
             1588.40,407.52 1585.59,409.80 1578.00,409.99
             1575.48,410.05 1572.45,410.04 1570.00,409.47
             1564.18,408.13 1551.12,400.94 1547.70,395.99
             1545.23,392.42 1542.88,384.38 1541.19,380.00
             1539.02,374.38 1536.51,369.13 1536.09,363.00
             1535.42,353.19 1541.02,339.16 1543.35,329.00
             1543.35,329.00 1547.76,304.00 1547.76,304.00
             1547.76,304.00 1553.79,286.00 1553.79,286.00
             1553.79,286.00 1556.52,267.00 1556.52,267.00
             1558.30,259.63 1562.00,257.94 1564.19,247.00
             1564.19,247.00 1569.17,189.00 1569.17,189.00
             1569.17,189.00 1574.83,154.00 1574.83,154.00
             1574.83,154.00 1576.00,133.00 1576.00,133.00
             1576.00,133.00 1576.96,121.00 1576.96,121.00
             1576.96,121.00 1576.96,105.00 1576.96,105.00
             1576.96,105.00 1578.00,90.00 1578.00,90.00
             1578.08,82.93 1578.17,73.90 1579.47,67.00
             1579.47,67.00 1584.57,48.00 1584.57,48.00
             1584.57,48.00 1587.57,22.04 1587.57,22.04
             1588.93,17.51 1592.74,16.33 1595.61,12.91
             1598.79,9.11 1599.60,4.78 1600.00,0.00 Z
           M 2980.50,169.00
           C 2975.69,172.83 2965.81,177.50 2960.00,179.07
             2955.49,180.30 2947.97,180.07 2943.00,180.26
             2937.94,180.44 2926.59,180.03 2922.00,178.39
             2917.54,176.80 2914.71,173.52 2911.00,170.76
             2907.69,168.29 2905.16,166.98 2902.09,163.91
             2898.64,160.46 2887.66,144.48 2886.22,140.00
             2884.50,134.62 2884.99,126.78 2885.00,121.00
             2885.01,117.28 2884.93,114.67 2885.93,111.00
             2887.38,105.62 2891.01,96.00 2894.00,91.50
             2901.21,80.66 2899.86,81.97 2911.00,75.00
             2914.87,72.58 2922.55,70.22 2927.00,68.94
             2931.78,67.56 2943.53,67.94 2949.00,68.00
             2952.60,68.05 2955.58,68.27 2959.00,69.56
             2962.06,70.71 2979.27,81.90 2981.71,84.30
             2988.36,90.81 2993.00,106.00 2993.00,106.00
             2993.00,106.00 2994.82,116.00 2994.82,116.00
             3002.24,125.70 2995.78,163.99 2980.50,169.00 Z
           M 2937.00,79.30
           C 2922.91,81.93 2918.08,80.16 2908.00,91.00
             2905.65,93.53 2904.04,97.88 2902.45,101.00
             2898.85,108.04 2898.99,122.06 2899.00,130.00
             2899.01,134.49 2899.48,143.07 2901.45,147.00
             2903.01,150.10 2905.61,152.51 2907.97,155.00
             2909.76,156.90 2912.21,159.83 2914.17,161.36
             2919.73,165.75 2933.86,169.91 2941.00,170.00
             2952.31,170.13 2951.14,169.76 2961.00,164.76
             2975.14,157.59 2976.69,157.55 2983.96,143.00
             2986.04,138.84 2987.88,135.75 2988.68,131.00
             2991.24,115.65 2982.51,100.39 2972.00,90.00
             2969.86,87.89 2967.63,85.58 2965.00,84.09
             2959.44,80.92 2943.49,78.65 2937.00,79.30 Z
           M 897.00,465.00
           C 871.50,460.50 863.88,456.82 857.00,454.11
             853.22,452.63 851.22,449.89 848.00,447.64
             848.00,447.64 840.00,443.15 840.00,443.15
             840.00,443.15 833.00,437.20 833.00,437.20
             833.00,437.20 826.33,432.22 826.33,432.22
             820.73,427.28 814.68,416.28 810.61,410.00
             808.28,406.40 804.53,402.68 803.00,399.00
             803.00,399.00 799.25,384.00 799.25,384.00
             794.10,368.29 793.08,371.99 793.00,354.00
             793.00,354.00 790.00,312.00 790.00,312.00
             790.00,312.00 789.18,297.00 789.18,297.00
             789.18,297.00 790.00,285.00 790.00,285.00
             790.00,285.00 792.91,244.00 792.91,244.00
             792.91,244.00 793.44,233.00 793.44,233.00
             795.00,223.07 797.84,221.60 800.25,213.00
             800.25,213.00 803.36,198.00 803.36,198.00
             803.36,198.00 811.11,185.00 811.11,185.00
             811.11,185.00 815.35,174.00 815.35,174.00
             815.35,174.00 824.70,158.00 824.70,158.00
             824.70,158.00 831.49,150.00 831.49,150.00
             846.59,131.04 862.37,114.55 883.00,101.54
             883.00,101.54 893.09,93.82 893.09,93.82
             893.09,93.82 905.00,90.29 905.00,90.29
             905.00,90.29 917.00,84.79 917.00,84.79
             917.00,84.79 945.00,82.00 945.00,82.00
             945.00,82.00 968.00,82.00 968.00,82.00
             968.00,82.00 989.00,83.83 989.00,83.83
             989.00,83.83 997.00,84.53 997.00,84.53
             1002.23,85.74 1005.36,88.68 1010.00,90.52
             1014.75,92.41 1018.97,91.91 1022.83,94.28
             1022.83,94.28 1030.01,100.40 1030.01,100.40
             1034.53,103.80 1040.40,106.01 1042.11,112.00
             1043.50,116.90 1040.35,120.38 1036.96,123.41
             1028.84,130.66 1024.68,131.98 1014.00,132.00
             1014.00,132.00 999.00,132.00 999.00,132.00
             978.87,131.76 974.06,126.95 960.00,124.46
             960.00,124.46 952.00,123.83 952.00,123.83
             949.18,123.56 948.03,123.10 945.00,123.32
             945.00,123.32 934.00,124.76 934.00,124.76
             931.07,125.52 913.29,133.17 911.01,134.80
             911.01,134.80 896.58,148.85 896.58,148.85
             893.07,152.40 889.91,154.64 887.13,159.00
             887.13,159.00 876.76,178.00 876.76,178.00
             876.76,178.00 873.37,189.00 873.37,189.00
             873.37,189.00 866.46,201.00 866.46,201.00
             863.76,207.43 863.49,212.74 861.70,219.00
             861.70,219.00 855.64,234.00 855.64,234.00
             855.64,234.00 852.54,256.00 852.54,256.00
             852.54,256.00 846.81,276.00 846.81,276.00
             844.30,288.51 843.94,301.29 844.00,314.00
             844.03,320.61 845.57,333.84 847.70,340.00
             847.70,340.00 852.22,352.00 852.22,352.00
             852.22,352.00 855.39,366.00 855.39,366.00
             856.50,369.08 865.54,384.31 867.68,386.96
             867.68,386.96 882.04,401.37 882.04,401.37
             882.04,401.37 890.00,406.37 890.00,406.37
             893.71,409.20 896.72,412.43 901.00,414.58
             905.24,416.70 910.43,417.04 915.00,418.52
             919.20,419.87 923.47,422.17 928.00,421.64
             930.88,421.30 935.20,419.47 938.00,418.42
             949.86,413.99 954.31,411.28 961.34,400.00
             961.34,400.00 965.99,390.00 965.99,390.00
             965.99,390.00 971.59,382.00 971.59,382.00
             974.85,375.99 978.26,359.88 977.96,353.00
             977.61,344.85 973.51,335.46 966.99,330.42
             961.76,326.38 960.58,329.04 951.00,320.71
             945.20,315.67 939.43,307.94 944.74,300.17
             946.56,297.50 957.08,287.97 960.00,286.57
             960.00,286.57 969.00,283.87 969.00,283.87
             974.01,281.98 976.29,279.01 982.00,277.52
             990.30,275.34 1014.13,275.07 1022.00,278.14
             1025.31,279.44 1027.93,281.88 1031.00,283.60
             1036.79,286.85 1041.34,288.76 1044.91,295.00
             1047.79,300.02 1048.06,306.38 1048.00,312.00
             1047.95,316.13 1047.29,321.29 1044.92,324.79
             1042.95,327.70 1039.96,328.68 1037.33,331.33
             1034.33,334.33 1032.73,338.07 1031.34,342.00
             1028.58,349.87 1026.04,360.70 1025.17,369.00
             1025.17,369.00 1023.54,384.00 1023.54,384.00
             1021.98,392.55 1020.01,394.41 1018.04,401.00
             1016.37,406.62 1016.70,411.65 1013.64,417.00
             1010.96,421.67 1007.81,423.38 1004.28,427.09
             999.73,431.88 992.59,439.33 987.00,442.65
             980.14,446.72 976.02,446.36 969.00,448.44
             969.00,448.44 954.00,453.96 954.00,453.96
             954.00,453.96 943.00,455.44 943.00,455.44
             938.50,460.50 897.00,465.00 897.00,465.00 Z
           M 2425.00,464.00
           C 2411.50,462.00 2387.63,455.29 2384.00,453.15
             2384.00,453.15 2376.00,446.79 2376.00,446.79
             2368.93,441.73 2361.69,437.44 2355.32,431.34
             2355.32,431.34 2340.48,413.00 2340.48,413.00
             2340.48,413.00 2336.35,405.00 2336.35,405.00
             2336.35,405.00 2331.92,398.00 2331.92,398.00
             2329.74,393.34 2329.84,386.70 2328.26,381.00
             2328.26,381.00 2322.01,361.00 2322.01,361.00
             2322.01,361.00 2318.00,313.00 2318.00,313.00
             2318.00,313.00 2318.00,278.00 2318.00,278.00
             2318.00,278.00 2319.83,254.00 2319.83,254.00
             2319.83,254.00 2321.46,239.00 2321.46,239.00
             2321.46,239.00 2328.84,217.00 2328.84,217.00
             2330.71,209.90 2329.25,206.73 2332.25,199.00
             2333.87,194.80 2335.78,193.53 2337.44,190.00
             2337.44,190.00 2341.53,178.00 2341.53,178.00
             2341.53,178.00 2349.39,167.00 2349.39,167.00
             2349.39,167.00 2353.36,159.00 2353.36,159.00
             2353.36,159.00 2362.61,146.09 2362.61,146.09
             2362.61,146.09 2368.72,139.91 2368.72,139.91
             2376.18,131.97 2383.64,123.43 2392.09,116.50
             2392.09,116.50 2399.00,111.48 2399.00,111.48
             2399.00,111.48 2406.00,105.63 2406.00,105.63
             2406.00,105.63 2414.00,100.61 2414.00,100.61
             2417.16,98.15 2419.22,95.36 2423.00,93.65
             2423.00,93.65 2433.00,90.90 2433.00,90.90
             2438.17,89.06 2439.66,86.90 2446.00,85.16
             2452.35,83.42 2454.25,84.38 2460.00,83.83
             2460.00,83.83 2482.00,82.00 2482.00,82.00
             2482.00,82.00 2512.00,83.83 2512.00,83.83
             2516.91,84.30 2519.79,83.52 2525.00,84.93
             2530.86,86.51 2533.63,89.27 2538.00,90.87
             2542.39,92.48 2548.08,92.16 2551.91,94.73
             2551.91,94.73 2559.04,101.32 2559.04,101.32
             2563.27,104.74 2569.54,106.97 2570.57,113.00
             2571.44,118.19 2567.48,121.26 2564.00,124.27
             2561.78,126.18 2559.70,128.14 2557.00,129.35
             2552.94,131.17 2539.79,132.05 2535.00,132.00
             2535.00,132.00 2507.00,129.32 2507.00,129.32
             2507.00,129.32 2494.00,124.92 2494.00,124.92
             2486.95,123.06 2479.24,122.92 2472.00,123.00
             2461.41,123.13 2460.78,124.99 2452.00,128.83
             2448.26,130.46 2443.21,131.51 2440.01,133.70
             2436.60,136.03 2434.85,139.08 2431.91,141.79
             2431.91,141.79 2426.09,146.37 2426.09,146.37
             2424.00,148.21 2417.28,156.56 2415.63,159.00
             2415.63,159.00 2411.01,168.00 2411.01,168.00
             2408.61,171.92 2405.75,174.12 2403.40,179.00
             2403.40,179.00 2397.65,196.00 2397.65,196.00
             2395.25,201.41 2393.52,202.39 2391.90,209.00
             2391.90,209.00 2389.03,226.00 2389.03,226.00
             2387.21,231.01 2384.31,232.96 2382.44,239.00
             2379.34,249.02 2379.17,259.75 2377.56,270.00
             2374.92,286.89 2371.91,292.49 2372.00,311.00
             2372.06,322.56 2374.87,329.17 2377.00,340.00
             2378.17,345.96 2379.93,357.84 2382.21,363.00
             2384.27,367.66 2387.10,369.54 2389.07,373.00
             2391.05,376.48 2391.37,381.32 2394.65,386.00
             2396.73,388.98 2407.05,399.35 2410.00,401.51
             2410.00,401.51 2417.00,405.64 2417.00,405.64
             2417.00,405.64 2426.00,413.20 2426.00,413.20
             2431.55,417.07 2434.99,416.67 2441.00,418.29
             2445.23,419.43 2450.87,422.42 2455.00,422.52
             2459.16,422.61 2463.19,419.95 2467.00,418.46
             2477.69,414.29 2483.37,414.74 2489.68,403.00
             2489.68,403.00 2493.99,393.00 2493.99,393.00
             2495.93,389.14 2498.69,386.13 2500.16,382.00
             2500.16,382.00 2503.35,370.00 2503.35,370.00
             2506.40,362.68 2511.27,357.60 2508.01,349.00
             2506.41,344.79 2498.42,332.10 2494.98,329.41
             2490.82,326.16 2486.28,325.98 2478.00,317.96
             2473.17,313.27 2469.42,307.71 2473.89,301.17
             2475.13,299.36 2478.31,296.59 2480.00,294.96
             2490.91,284.46 2487.32,288.67 2499.00,283.87
             2503.62,281.97 2504.58,279.79 2510.00,278.17
             2515.37,276.57 2521.42,277.00 2527.00,277.00
             2533.35,277.00 2545.54,276.26 2551.00,278.65
             2553.36,279.67 2554.91,281.04 2557.00,282.41
             2568.72,290.10 2575.92,291.97 2576.00,308.00
             2576.00,308.00 2576.00,315.00 2576.00,315.00
             2575.79,330.05 2565.45,325.43 2561.80,337.00
             2561.80,337.00 2558.76,354.00 2558.76,354.00
             2557.05,361.04 2555.05,362.71 2553.44,373.00
             2553.44,373.00 2551.24,390.00 2551.24,390.00
             2549.41,397.01 2547.07,398.96 2545.12,404.00
             2542.42,410.95 2541.95,416.85 2536.79,423.00
             2532.01,428.69 2518.56,441.27 2512.00,444.05
             2512.00,444.05 2495.00,448.38 2495.00,448.38
             2489.68,450.31 2487.31,452.45 2481.00,453.96
             2481.00,453.96 2470.00,455.30 2470.00,455.30
             2459.06,456.88 2425.00,464.00 2425.00,464.00 Z
           M 2937.00,95.53
           C 2946.77,94.02 2960.56,102.24 2959.83,113.00
             2959.41,119.08 2954.65,119.92 2955.05,129.00
             2955.42,137.47 2960.84,139.36 2962.58,144.00
             2963.76,147.14 2957.78,149.85 2954.50,150.50
             2947.18,151.96 2941.95,134.77 2936.00,133.00
             2928.33,130.71 2930.85,159.57 2923.50,151.00
             2920.89,147.96 2920.85,134.54 2920.50,130.50
             2920.15,126.51 2921.81,117.87 2922.50,114.00
             2923.18,110.21 2926.99,101.04 2930.10,98.65
             2932.31,96.95 2934.41,96.30 2937.00,95.53 Z
           M 2939.50,105.50
           C 2931.61,108.81 2932.20,123.68 2939.50,122.50
             2946.07,121.44 2948.56,105.06 2939.50,105.50 Z
           M 1271.00,120.45
           C 1276.58,119.98 1279.79,121.28 1285.00,123.00
             1300.49,128.12 1307.32,134.82 1316.72,148.00
             1316.72,148.00 1324.29,157.09 1324.29,157.09
             1326.38,160.23 1326.97,165.20 1328.46,169.00
             1330.33,173.73 1332.88,176.85 1334.24,182.00
             1334.24,182.00 1336.00,201.00 1336.00,201.00
             1336.00,201.00 1337.00,222.00 1337.00,222.00
             1337.00,222.00 1336.00,258.00 1336.00,258.00
             1336.00,258.00 1334.54,286.00 1334.54,286.00
             1334.54,286.00 1328.65,306.00 1328.65,306.00
             1328.65,306.00 1325.20,328.00 1325.20,328.00
             1323.65,332.94 1320.60,334.70 1318.06,341.00
             1318.06,341.00 1312.45,358.00 1312.45,358.00
             1312.45,358.00 1306.52,368.00 1306.52,368.00
             1305.15,370.97 1304.45,373.98 1302.64,376.83
             1299.74,381.39 1290.94,391.71 1287.18,396.00
             1282.89,400.90 1281.56,404.05 1276.00,408.79
             1276.00,408.79 1267.01,414.93 1267.01,414.93
             1267.01,414.93 1258.91,421.92 1258.91,421.92
             1258.91,421.92 1250.00,425.30 1250.00,425.30
             1246.12,427.23 1244.36,430.03 1239.00,431.89
             1239.00,431.89 1223.00,434.27 1223.00,434.27
             1215.10,435.49 1210.40,437.18 1202.00,436.99
             1195.94,436.85 1191.75,435.33 1186.00,434.26
             1182.29,433.57 1176.21,432.95 1173.00,431.43
             1170.25,430.13 1168.44,428.30 1166.00,426.62
             1166.00,426.62 1159.17,422.37 1159.17,422.37
             1153.13,417.57 1148.75,410.07 1144.24,404.00
             1144.24,404.00 1137.13,395.00 1137.13,395.00
             1137.13,395.00 1132.39,386.00 1132.39,386.00
             1130.81,383.57 1129.03,381.73 1127.81,379.00
             1127.81,379.00 1124.09,363.00 1124.09,363.00
             1124.09,363.00 1116.16,343.00 1116.16,343.00
             1116.16,343.00 1111.62,316.00 1111.62,316.00
             1108.80,305.03 1107.06,308.84 1105.10,294.00
             1105.10,294.00 1105.10,283.00 1105.10,283.00
             1105.10,283.00 1104.00,273.00 1104.00,273.00
             1104.00,273.00 1104.00,247.00 1104.00,247.00
             1104.00,247.00 1104.00,179.00 1104.00,179.00
             1104.01,175.01 1104.76,163.27 1106.31,160.00
             1107.27,157.97 1109.07,155.84 1110.43,154.00
             1112.54,151.12 1113.88,148.84 1117.02,146.84
             1119.67,145.15 1122.97,144.47 1126.00,143.79
             1137.70,141.18 1140.48,141.18 1152.00,144.66
             1155.27,145.64 1160.04,145.99 1162.35,148.43
             1165.84,152.11 1165.99,159.23 1166.00,164.00
             1166.00,164.00 1166.00,193.00 1166.00,193.00
             1166.00,193.00 1165.00,208.00 1165.00,208.00
             1165.00,208.00 1165.00,231.00 1165.00,231.00
             1165.00,231.00 1164.00,248.00 1164.00,248.00
             1164.00,248.00 1164.00,263.00 1164.00,263.00
             1164.00,263.00 1165.00,276.00 1165.00,276.00
             1165.11,285.38 1164.96,294.75 1166.81,304.00
             1166.81,304.00 1172.22,320.00 1172.22,320.00
             1172.22,320.00 1175.58,339.00 1175.58,339.00
             1176.39,344.23 1176.94,350.07 1178.93,355.00
             1178.93,355.00 1184.61,366.00 1184.61,366.00
             1184.61,366.00 1187.93,377.00 1187.93,377.00
             1191.94,386.90 1199.98,394.72 1211.00,394.99
             1226.17,395.35 1225.93,390.77 1234.09,383.88
             1241.55,377.59 1258.72,359.94 1263.52,352.00
             1263.52,352.00 1267.32,344.00 1267.32,344.00
             1267.32,344.00 1273.44,334.00 1273.44,334.00
             1275.29,330.04 1274.68,327.27 1277.81,321.00
             1281.15,314.29 1283.87,312.37 1286.08,304.00
             1289.36,291.54 1289.00,270.21 1289.00,257.00
             1289.00,245.33 1288.98,223.79 1285.79,213.00
             1283.35,204.74 1281.24,203.52 1277.99,197.00
             1277.99,197.00 1273.64,184.00 1273.64,184.00
             1273.64,184.00 1267.44,174.00 1267.44,174.00
             1267.44,174.00 1264.01,165.00 1264.01,165.00
             1261.50,159.91 1256.81,155.12 1254.97,150.00
             1253.76,146.63 1254.13,143.48 1253.72,140.00
             1253.17,135.43 1251.90,130.16 1255.43,126.39
             1258.67,122.93 1266.42,121.28 1271.00,120.45 Z
           M 2800.00,120.50
           C 2806.89,120.04 2820.19,124.24 2826.00,127.97
             2826.00,127.97 2834.00,134.49 2834.00,134.49
             2835.96,136.05 2837.92,137.28 2839.61,139.18
             2839.61,139.18 2845.30,148.00 2845.30,148.00
             2857.45,165.26 2851.40,159.47 2856.07,168.00
             2858.23,171.93 2861.39,174.40 2862.59,179.00
             2864.20,185.18 2863.66,191.72 2864.09,198.00
             2864.09,198.00 2865.00,209.00 2865.00,209.00
             2865.00,209.00 2865.00,244.00 2865.00,244.00
             2865.00,244.00 2863.96,261.00 2863.96,261.00
             2863.96,261.00 2863.96,275.00 2863.96,275.00
             2863.96,275.00 2863.00,285.00 2863.00,285.00
             2862.96,288.31 2863.22,291.77 2862.39,295.00
             2860.81,301.16 2857.40,304.18 2855.67,311.00
             2855.67,311.00 2850.24,335.00 2850.24,335.00
             2850.24,335.00 2843.56,348.00 2843.56,348.00
             2843.56,348.00 2840.43,360.00 2840.43,360.00
             2840.43,360.00 2834.36,369.00 2834.36,369.00
             2834.36,369.00 2830.16,378.00 2830.16,378.00
             2830.16,378.00 2823.04,387.00 2823.04,387.00
             2816.48,395.63 2813.14,401.39 2804.00,408.47
             2804.00,408.47 2797.00,413.38 2797.00,413.38
             2797.00,413.38 2788.00,421.30 2788.00,421.30
             2784.59,423.57 2781.33,423.90 2778.00,425.55
             2774.02,427.53 2772.12,430.25 2768.00,431.85
             2765.32,432.90 2756.65,433.48 2753.00,434.00
             2753.00,434.00 2735.00,436.96 2735.00,436.96
             2729.23,437.20 2706.89,433.78 2702.00,431.43
             2699.01,430.00 2697.55,428.27 2695.00,426.48
             2695.00,426.48 2688.09,422.36 2688.09,422.36
             2688.09,422.36 2675.39,408.96 2675.39,408.96
             2675.39,408.96 2665.70,395.00 2665.70,395.00
             2662.83,390.59 2663.37,387.33 2660.48,382.00
             2658.52,378.38 2656.36,376.09 2654.81,372.00
             2654.81,372.00 2649.77,354.00 2649.77,354.00
             2647.04,346.85 2644.55,345.65 2643.05,340.00
             2643.05,340.00 2639.56,313.00 2639.56,313.00
             2637.25,298.75 2633.03,295.04 2633.00,277.00
             2633.00,277.00 2632.00,254.00 2632.00,254.00
             2632.00,254.00 2632.00,218.00 2632.00,218.00
             2632.00,218.00 2633.00,202.00 2633.00,202.00
             2633.04,192.37 2631.93,171.13 2634.84,163.00
             2635.91,159.98 2637.58,157.76 2639.11,155.00
             2640.10,153.20 2641.19,150.66 2642.49,149.14
             2645.39,145.78 2649.96,145.43 2654.00,144.41
             2666.48,140.76 2668.75,141.42 2681.00,144.41
             2685.94,145.78 2689.99,146.22 2692.91,151.04
             2697.72,158.98 2695.11,177.55 2695.00,187.00
             2695.00,187.00 2693.96,200.00 2693.96,200.00
             2693.96,200.00 2693.96,214.00 2693.96,214.00
             2693.96,214.00 2693.00,226.00 2693.00,226.00
             2693.00,226.00 2693.00,279.00 2693.00,279.00
             2693.07,284.56 2694.40,297.87 2696.09,303.00
             2696.09,303.00 2700.08,314.00 2700.08,314.00
             2700.08,314.00 2702.28,335.00 2702.28,335.00
             2704.25,349.59 2706.40,349.06 2710.94,361.00
             2710.94,361.00 2715.56,375.00 2715.56,375.00
             2717.29,378.47 2719.93,380.77 2722.04,384.00
             2724.32,387.50 2725.11,390.60 2729.04,392.86
             2732.94,395.11 2738.62,395.05 2743.00,395.00
             2755.03,394.86 2754.46,391.19 2762.09,384.32
             2765.83,380.96 2766.16,381.53 2770.42,376.98
             2770.42,376.98 2778.66,368.91 2778.66,368.91
             2782.13,364.95 2798.78,341.48 2801.00,337.00
             2801.00,337.00 2805.10,324.00 2805.10,324.00
             2807.06,319.35 2809.63,317.29 2811.22,312.00
             2811.22,312.00 2815.61,285.00 2815.61,285.00
             2817.06,277.06 2820.36,264.96 2819.91,257.00
             2819.91,257.00 2815.28,231.00 2815.28,231.00
             2815.28,231.00 2811.20,205.00 2811.20,205.00
             2811.20,205.00 2805.47,194.00 2805.47,194.00
             2805.47,194.00 2801.33,181.00 2801.33,181.00
             2801.33,181.00 2788.32,158.00 2788.32,158.00
             2788.32,158.00 2784.16,152.00 2784.16,152.00
             2781.18,147.15 2779.62,129.73 2784.16,125.56
             2786.52,123.59 2796.72,121.18 2800.00,120.50 Z
           M 613.00,135.67
           C 623.91,134.10 635.12,135.12 646.00,135.67
             649.02,136.13 658.59,136.70 661.00,137.60
             664.68,138.96 666.47,142.15 671.00,144.45
             671.00,144.45 679.96,148.48 679.96,148.48
             683.35,150.62 685.91,153.81 689.01,156.34
             696.27,162.25 706.81,171.47 712.21,179.00
             720.25,190.20 720.98,193.72 726.49,205.00
             729.25,210.64 732.65,213.05 734.20,218.00
             734.20,218.00 736.88,236.00 736.88,236.00
             739.03,245.81 741.88,252.65 742.00,263.00
             742.25,284.55 739.89,282.51 736.61,301.00
             736.61,301.00 734.35,318.00 734.35,318.00
             732.96,322.48 728.85,326.33 726.52,331.00
             726.52,331.00 721.45,344.00 721.45,344.00
             721.45,344.00 716.81,351.00 716.81,351.00
             716.81,351.00 712.36,359.00 712.36,359.00
             712.36,359.00 705.28,367.00 705.28,367.00
             694.31,379.49 692.72,381.78 679.00,391.78
             679.00,391.78 668.00,401.07 668.00,401.07
             668.00,401.07 660.00,404.13 660.00,404.13
             656.53,405.98 655.15,408.21 651.00,409.74
             651.00,409.74 637.00,413.03 637.00,413.03
             637.00,413.03 618.00,420.52 618.00,420.52
             609.57,422.69 596.96,422.10 588.00,422.00
             574.27,421.84 571.25,417.48 560.00,413.38
             560.00,413.38 545.00,409.07 545.00,409.07
             538.63,405.52 530.59,398.15 525.00,393.44
             511.50,382.05 509.30,378.97 498.96,365.04
             498.96,365.04 493.00,357.91 493.00,357.91
             490.82,354.45 491.11,351.49 489.10,347.00
             489.10,347.00 483.25,336.00 483.25,336.00
             481.46,330.81 478.07,306.87 478.00,301.00
             477.85,288.05 479.00,267.24 482.77,255.00
             484.56,249.21 487.12,246.59 489.05,242.00
             490.74,237.96 490.62,234.38 492.73,231.00
             492.73,231.00 499.65,222.00 499.65,222.00
             499.65,222.00 504.69,212.00 504.69,212.00
             504.69,212.00 510.39,205.00 510.39,205.00
             510.39,205.00 514.90,198.17 514.90,198.17
             523.67,186.54 541.06,168.86 553.00,160.64
             553.00,160.64 561.00,156.32 561.00,156.32
             565.34,153.50 566.38,151.63 572.00,148.81
             572.00,148.81 584.00,143.92 584.00,143.92
             587.47,141.95 590.10,138.68 594.00,137.51
             594.00,137.51 613.00,135.67 613.00,135.67 Z
           M 2143.00,135.67
           C 2153.60,134.13 2164.43,135.14 2175.00,135.67
             2178.46,136.17 2187.05,136.60 2190.00,137.74
             2193.44,139.06 2195.47,141.87 2199.00,143.92
             2202.11,145.72 2203.67,145.56 2208.00,148.47
             2220.94,157.15 2232.26,168.71 2241.74,181.00
             2243.94,183.85 2247.24,187.07 2248.91,190.00
             2248.91,190.00 2252.21,199.00 2252.21,199.00
             2252.21,199.00 2259.44,212.00 2259.44,212.00
             2259.44,212.00 2264.16,232.00 2264.16,232.00
             2267.15,243.30 2271.81,245.78 2272.00,262.00
             2272.12,272.32 2272.29,278.82 2269.51,289.00
             2269.51,289.00 2264.43,303.00 2264.43,303.00
             2264.43,303.00 2259.30,324.00 2259.30,324.00
             2256.89,330.69 2254.66,332.15 2252.53,337.00
             2252.53,337.00 2248.92,347.00 2248.92,347.00
             2248.92,347.00 2232.14,369.00 2232.14,369.00
             2225.69,376.76 2225.18,379.43 2216.00,386.61
             2216.00,386.61 2206.00,392.63 2206.00,392.63
             2206.00,392.63 2197.72,400.16 2197.72,400.16
             2197.72,400.16 2189.00,403.99 2189.00,403.99
             2189.00,403.99 2180.00,409.50 2180.00,409.50
             2180.00,409.50 2164.00,413.54 2164.00,413.54
             2150.90,418.11 2149.48,421.98 2134.00,422.00
             2134.00,422.00 2116.00,422.00 2116.00,422.00
             2101.52,421.83 2099.32,417.15 2088.00,413.09
             2088.00,413.09 2074.00,409.08 2074.00,409.08
             2074.00,409.08 2060.17,399.67 2060.17,399.67
             2060.17,399.67 2052.99,392.43 2052.99,392.43
             2038.63,379.83 2031.89,373.76 2021.98,357.00
             2021.98,357.00 2015.73,342.00 2015.73,342.00
             2015.73,342.00 2008.47,329.00 2008.47,329.00
             2007.05,324.71 2005.06,302.19 2005.00,297.00
             2004.93,290.76 2006.60,266.35 2008.06,261.00
             2009.47,255.81 2014.07,250.87 2016.54,245.00
             2016.54,245.00 2020.68,233.00 2020.68,233.00
             2020.68,233.00 2030.84,215.17 2030.84,215.17
             2030.84,215.17 2036.96,207.99 2036.96,207.99
             2036.96,207.99 2050.59,189.09 2050.59,189.09
             2050.59,189.09 2081.00,160.42 2081.00,160.42
             2084.52,157.86 2086.54,158.03 2090.00,156.01
             2090.00,156.01 2098.00,150.47 2098.00,150.47
             2104.11,146.70 2105.81,147.11 2111.00,144.79
             2115.96,142.57 2118.19,139.18 2122.00,137.74
             2122.00,137.74 2143.00,135.67 2143.00,135.67 Z
           M 600.00,197.33
           C 591.33,199.41 590.37,202.34 584.00,207.68
             581.21,210.01 578.96,211.19 576.53,214.09
             576.53,214.09 570.62,223.00 570.62,223.00
             570.62,223.00 565.64,229.00 565.64,229.00
             565.64,229.00 559.93,240.00 559.93,240.00
             557.85,243.40 554.42,247.57 552.99,251.00
             552.99,251.00 549.60,264.00 549.60,264.00
             549.60,264.00 543.54,276.00 543.54,276.00
             540.04,288.47 540.30,309.31 543.54,322.00
             544.81,328.38 547.92,329.74 550.29,336.00
             550.29,336.00 553.07,345.00 553.07,345.00
             555.17,349.60 567.85,365.36 572.00,368.61
             576.78,372.36 580.33,372.63 584.00,374.82
             584.00,374.82 591.00,379.73 591.00,379.73
             595.49,382.20 604.00,382.57 609.00,381.67
             615.36,380.54 618.25,376.72 623.00,374.55
             626.83,372.81 630.29,373.03 634.00,370.91
             636.72,369.36 638.65,367.19 641.00,365.20
             641.00,365.20 648.79,359.32 648.79,359.32
             652.82,355.70 660.85,345.60 664.34,341.00
             666.99,337.50 670.53,333.85 672.59,330.00
             672.59,330.00 676.88,318.00 676.88,318.00
             681.99,306.09 683.93,306.91 684.04,292.00
             684.04,292.00 684.04,278.00 684.04,278.00
             684.04,278.00 684.82,271.00 684.82,271.00
             684.82,271.00 684.02,263.00 684.02,263.00
             684.02,263.00 684.02,249.00 684.02,249.00
             683.95,245.37 683.32,239.39 682.15,236.00
             680.09,230.00 671.45,217.81 666.72,213.47
             662.47,209.57 657.99,208.31 653.00,205.74
             653.00,205.74 640.00,198.61 640.00,198.61
             633.41,196.34 607.57,196.49 600.00,197.33 Z
           M 2129.00,197.16
           C 2119.78,199.53 2117.75,202.76 2111.00,208.72
             2111.00,208.72 2105.21,214.04 2105.21,214.04
             2105.21,214.04 2091.22,233.00 2091.22,233.00
             2091.22,233.00 2086.21,244.00 2086.21,244.00
             2086.21,244.00 2081.55,252.00 2081.55,252.00
             2081.55,252.00 2077.54,266.00 2077.54,266.00
             2071.80,279.63 2069.23,276.00 2067.91,294.00
             2067.66,297.42 2066.93,299.45 2067.18,303.00
             2067.64,309.51 2068.49,316.06 2071.33,322.00
             2073.78,327.13 2075.85,328.19 2077.98,334.00
             2077.98,334.00 2081.05,343.00 2081.05,343.00
             2082.63,346.30 2084.60,348.15 2086.62,351.00
             2086.62,351.00 2090.69,358.00 2090.69,358.00
             2092.77,361.05 2101.03,368.71 2104.17,370.87
             2104.17,370.87 2112.00,374.75 2112.00,374.75
             2120.01,379.18 2119.38,381.87 2130.00,382.00
             2146.27,382.19 2143.99,377.84 2153.00,374.13
             2156.24,372.79 2159.73,372.45 2162.91,370.59
             2165.87,368.85 2168.22,365.76 2171.01,363.52
             2182.10,354.60 2184.20,352.77 2192.63,341.00
             2194.78,337.99 2196.69,336.42 2198.59,333.00
             2198.59,333.00 2202.76,324.00 2202.76,324.00
             2205.55,318.41 2209.45,313.10 2210.96,307.00
             2213.23,297.82 2213.12,266.85 2213.00,256.00
             2212.94,251.02 2211.81,237.31 2210.07,233.00
             2207.76,227.28 2196.92,214.06 2192.00,210.70
             2192.00,210.70 2179.00,204.68 2179.00,204.68
             2169.22,199.46 2169.21,197.06 2157.00,197.16
             2157.00,197.16 2129.00,197.16 2129.00,197.16 Z"/>
</svg>
