<?xml version="1.0" encoding="UTF-8" standalone="no"?>
<!DOCTYPE svg PUBLIC "-//W3C//DTD SVG 20010904//EN"
              "http://www.w3.org/TR/2001/REC-SVG-20010904/DTD/svg10.dtd">

<svg xmlns="http://www.w3.org/2000/svg"
     width="27.8039mm" height="4.48918mm"
     viewBox="0 0 384 62">
  <path id="Zaznaczenie"
        fill="none" stroke="black" stroke-width="1"
        d="M 22.00,33.00
           C 22.69,35.90 22.56,49.27 20.98,51.57
             18.51,55.15 10.81,54.39 10.13,47.91
             9.75,44.24 12.42,37.06 13.35,33.00
             14.84,26.52 15.64,17.70 15.96,11.00
             16.13,7.63 15.77,1.82 20.09,0.74
             23.38,-0.07 25.59,3.58 26.86,6.00
             28.73,9.53 32.12,22.66 33.00,27.00
             39.53,23.43 39.72,14.95 43.48,9.04
             45.23,6.28 48.32,2.97 51.94,3.45
             56.42,4.03 56.89,10.47 57.60,14.00
             57.60,14.00 63.89,49.00 63.89,49.00
             64.79,52.91 67.52,59.56 61.96,61.34
             55.92,63.28 54.69,53.88 54.13,50.00
             54.13,50.00 52.42,39.00 52.42,39.00
             51.30,31.77 51.12,28.32 49.00,21.00
             49.00,21.00 47.00,21.00 47.00,21.00
             47.00,21.00 38.99,43.77 38.99,43.77
             37.00,46.85 32.33,47.76 30.01,44.57
             29.09,43.31 28.68,40.58 28.22,39.00
             28.22,39.00 26.00,33.09 26.00,33.09
             26.00,33.09 23.27,29.82 22.00,33.00 Z
           M 221.00,33.00
           C 221.58,35.92 221.50,49.36 219.98,51.57
             217.73,54.84 210.25,55.09 209.26,48.00
             208.76,44.34 211.16,37.86 211.99,34.00
             211.99,34.00 214.83,11.00 214.83,11.00
             215.14,7.91 214.82,0.93 219.17,0.44
             222.32,0.08 224.35,3.64 225.51,6.00
             227.99,11.06 230.47,21.19 232.00,27.00
             232.00,27.00 235.00,27.00 235.00,27.00
             236.10,23.10 241.22,9.91 243.56,7.11
             245.51,4.75 249.41,2.00 252.49,4.04
             255.22,5.83 256.55,13.84 257.08,17.00
             257.08,17.00 261.45,44.00 261.45,44.00
             261.45,44.00 264.22,56.98 264.22,56.98
             263.87,61.62 258.05,63.53 255.57,59.71
             253.24,56.12 251.66,43.63 251.16,39.00
             251.16,39.00 248.00,21.00 248.00,21.00
             241.07,27.13 240.79,39.19 237.84,43.77
             235.73,47.06 231.34,47.59 228.74,44.57
             225.45,40.76 228.96,37.79 222.00,32.00
             222.00,32.00 221.00,33.00 221.00,33.00 Z
           M 129.00,10.64
           C 133.00,9.83 138.22,9.39 141.94,11.45
             146.00,13.71 145.83,17.18 140.98,17.84
             136.65,18.43 133.31,15.94 129.09,18.74
             122.20,23.31 116.44,44.07 125.21,51.57
             130.85,56.39 135.67,50.93 135.47,47.04
             135.31,44.16 132.50,42.46 132.91,40.02
             133.65,35.56 142.54,35.00 145.26,37.73
             148.07,40.56 145.44,44.06 144.52,47.04
             141.78,55.84 142.69,57.35 133.00,60.62
             130.52,61.45 128.68,62.11 126.00,61.72
             116.81,60.38 112.99,52.25 112.17,44.00
             110.78,30.11 114.84,15.98 129.00,10.64 Z
           M 328.00,10.64
           C 332.00,9.83 337.22,9.39 340.94,11.45
             345.00,13.71 344.83,17.18 339.98,17.84
             335.59,18.44 332.40,15.93 328.04,18.74
             319.90,24.00 315.88,44.90 324.11,51.57
             330.31,56.60 334.50,50.35 334.42,47.04
             334.34,44.14 331.50,42.48 331.91,40.02
             332.63,35.70 340.78,35.06 343.40,37.60
             346.62,40.40 344.26,43.88 343.40,47.00
             340.64,54.98 342.16,57.04 332.99,60.27
             330.23,61.24 328.00,62.15 325.00,61.72
             311.32,59.79 310.98,47.78 311.00,37.00
             311.02,24.59 315.84,15.22 328.00,10.64 Z
           M 173.09,17.09
           C 183.51,15.14 183.99,21.65 184.00,30.00
             184.01,38.19 183.31,47.64 176.79,53.61
             175.16,55.10 173.07,56.18 171.00,56.89
             153.85,62.78 152.98,38.61 153.00,28.00
             153.00,25.82 152.79,22.15 154.02,20.31
             156.00,17.37 160.90,17.81 162.09,21.23
             162.84,23.37 160.09,42.53 165.81,48.63
             168.68,51.69 171.51,48.28 173.12,45.83
             176.26,41.07 177.83,35.67 176.61,30.00
             175.54,25.00 174.30,24.77 173.09,17.09 Z
           M 372.60,16.07
           C 381.42,13.49 382.99,24.94 383.00,31.00
             383.01,40.71 380.73,51.78 371.00,56.63
             367.94,57.89 364.13,58.41 361.02,56.63
             351.60,52.02 351.98,36.97 352.00,28.00
             352.00,25.82 351.79,22.15 353.02,20.37
             354.74,17.75 359.01,17.61 360.43,20.37
             361.08,21.73 360.99,24.51 361.00,26.00
             361.04,32.87 360.62,36.08 362.21,43.00
             362.99,46.39 364.44,51.46 368.96,48.54
             375.57,44.27 376.38,33.80 374.22,27.00
             372.92,22.92 369.88,20.02 372.60,16.07 Z
           M 87.00,17.65
           C 110.95,12.75 113.88,49.07 92.00,55.36
             80.93,58.55 70.19,48.04 71.34,37.00
             72.25,28.25 79.11,20.78 87.00,17.65 Z
           M 286.00,17.64
           C 297.29,15.38 305.92,23.88 305.92,35.00
             305.92,43.90 299.58,52.73 291.00,55.21
             279.55,58.52 269.15,48.30 270.11,37.00
             270.85,28.25 278.12,20.61 286.00,17.64 Z
           M 89.04,26.61
           C 84.01,28.72 80.74,34.48 81.23,40.00
             81.62,44.44 84.96,49.47 90.00,48.51
             99.20,46.77 104.03,26.29 89.04,26.61 Z
           M 288.04,26.53
           C 283.14,28.41 279.26,34.59 279.73,40.00
             280.14,44.65 283.80,49.72 288.99,48.45
             298.18,46.19 301.82,26.60 288.04,26.53 Z" />
</svg>
